<?xml version="1.0" encoding="UTF-8" ?>
<!DOCTYPE svg PUBLIC "-//W3C//DTD SVG 1.1//EN" "http://www.w3.org/Graphics/SVG/1.1/DTD/svg11.dtd">
<svg width="390.75pt" height="144pt" viewBox="0 0 600 221" version="1.1" xmlns="http://www.w3.org/2000/svg">
<g id="#f2f2f2f6">
</g>
<g id="#000000ff">
<path fill="#000000" opacity="1.00" d=" M 8.14 1.75 C 11.19 1.30 14.26 0.91 17.28 0.27 C 18.22 0.86 19.16 1.46 20.10 2.05 C 21.59 1.90 23.09 1.76 24.59 1.63 C 26.74 4.10 29.27 6.39 30.50 9.50 C 31.78 12.81 33.10 16.10 34.53 19.34 C 35.66 24.51 36.69 29.73 37.23 35.00 C 37.97 41.34 35.13 47.57 36.53 53.90 C 40.14 74.03 43.46 94.28 44.13 114.77 C 48.79 108.52 52.78 101.76 57.87 95.84 C 60.20 93.01 63.88 92.09 67.26 91.21 C 71.01 90.03 74.81 92.20 77.92 94.10 C 81.14 97.84 82.85 102.61 85.21 106.89 C 91.66 119.36 89.74 133.78 91.61 147.23 C 98.76 136.44 105.16 124.53 115.70 116.61 C 121.97 111.52 131.55 111.14 138.18 115.72 C 141.57 119.25 142.18 124.39 143.30 128.94 C 145.87 138.70 144.64 148.93 146.63 158.78 C 152.53 149.19 156.02 138.41 160.12 128.00 C 163.64 116.60 167.51 105.31 170.49 93.75 C 172.16 86.65 175.54 80.05 176.60 72.78 C 169.04 75.23 162.04 79.06 154.54 81.67 C 148.56 83.65 143.20 87.06 137.33 89.32 C 132.79 91.00 128.89 94.04 124.25 95.45 C 123.24 93.98 122.09 92.59 121.32 90.98 C 121.60 87.76 123.67 84.92 126.59 83.58 C 132.39 80.74 137.92 77.38 143.87 74.85 C 155.53 70.27 166.85 64.82 178.80 61.00 C 180.51 54.64 181.49 48.08 183.86 41.91 C 186.03 35.25 188.02 28.10 193.03 22.95 C 195.33 20.74 198.05 23.37 200.29 24.26 C 200.57 29.36 200.26 34.47 200.56 39.58 C 201.03 39.09 201.96 38.12 202.43 37.64 C 203.05 42.81 203.64 48.04 203.01 53.24 C 208.81 52.34 214.47 50.81 220.05 49.04 C 228.44 46.28 237.39 47.43 245.99 45.87 C 248.15 47.22 250.34 48.52 252.53 49.82 C 251.42 51.29 250.93 53.62 248.86 54.01 C 238.82 56.86 228.02 55.67 218.18 59.37 C 216.65 59.87 215.40 60.90 214.20 61.93 C 210.83 63.08 207.38 63.96 203.95 64.89 C 203.44 72.29 202.44 79.64 201.67 87.01 C 200.95 98.74 203.32 110.37 203.61 122.06 C 202.76 133.30 205.07 144.90 211.41 154.35 C 222.53 152.06 233.65 147.43 241.17 138.62 C 239.17 133.69 236.76 128.93 234.99 123.91 C 232.01 115.35 232.09 105.98 234.27 97.25 C 235.28 94.43 236.94 91.91 238.26 89.24 C 238.68 89.00 239.51 88.53 239.93 88.30 C 240.92 86.21 241.95 84.14 242.99 82.07 C 243.39 82.28 244.18 82.70 244.57 82.91 C 247.68 76.41 254.32 70.65 261.92 71.39 C 265.03 71.67 268.09 72.74 270.67 74.50 C 276.10 88.51 272.66 104.02 267.37 117.53 C 265.35 124.71 260.85 130.71 257.09 137.02 C 259.01 138.14 261.11 141.12 263.56 139.57 C 267.98 136.71 271.32 132.40 273.72 127.77 C 276.46 122.57 277.39 116.71 279.25 111.20 C 281.87 103.48 284.55 95.76 286.94 87.96 C 288.31 83.49 286.95 78.81 287.59 74.26 C 288.41 71.13 290.60 68.39 290.54 65.03 C 291.01 63.49 290.09 60.85 292.19 60.37 C 295.01 59.03 299.79 60.42 299.62 64.07 C 299.04 69.19 297.99 74.26 297.85 79.43 C 301.67 79.37 305.48 78.98 309.26 78.48 C 311.31 80.05 314.15 81.35 314.66 84.17 C 315.75 90.12 313.06 95.85 312.39 101.70 C 311.59 109.06 311.89 116.64 314.29 123.70 C 316.13 130.59 321.69 136.41 328.54 138.44 C 332.24 139.59 335.90 140.90 339.47 142.42 C 339.61 144.22 339.83 146.03 339.74 147.85 C 338.17 150.09 335.36 151.48 332.65 150.59 C 327.07 149.17 320.51 149.11 316.30 144.64 C 310.96 139.44 305.58 133.76 303.34 126.47 C 299.95 115.46 300.91 103.69 303.36 92.59 C 300.54 92.66 297.72 92.58 294.92 92.93 C 292.18 100.06 290.07 107.46 287.62 114.71 C 283.56 129.32 277.31 144.43 264.75 153.71 C 258.47 157.00 252.59 151.81 247.51 148.69 C 242.51 155.17 235.14 158.94 228.61 163.62 C 223.61 166.61 218.01 169.47 212.00 168.94 C 208.28 168.77 204.30 169.04 200.96 167.11 C 195.50 164.52 191.96 159.42 187.46 155.60 C 180.52 149.54 178.89 140.06 175.57 131.91 C 172.81 135.62 171.33 140.00 170.36 144.47 C 168.70 151.84 163.65 157.97 162.48 165.49 C 159.09 169.28 155.09 172.67 150.20 174.34 C 145.05 175.20 140.73 171.95 136.63 169.35 C 132.90 165.52 130.58 160.31 130.01 155.00 C 128.76 144.93 129.73 134.70 128.21 124.66 C 127.32 123.72 125.78 123.87 124.88 124.70 C 115.55 130.90 110.10 140.99 103.96 150.03 C 100.30 156.64 97.83 163.87 95.00 170.87 C 92.47 176.59 95.26 183.37 91.74 188.72 C 90.23 191.18 88.81 195.14 85.27 194.74 C 79.88 193.66 78.16 187.74 76.94 183.13 C 74.22 170.78 73.88 158.03 71.24 145.65 C 68.36 134.18 69.58 122.08 65.76 110.78 C 63.72 114.89 61.15 118.69 58.63 122.51 C 55.16 127.76 53.06 133.72 50.34 139.34 C 47.41 145.18 45.47 151.54 44.81 158.04 C 44.42 169.83 46.03 181.75 44.19 193.46 C 41.70 200.71 38.87 207.99 38.60 215.77 C 37.77 215.92 36.95 216.07 36.12 216.23 C 34.98 219.21 32.18 220.48 29.23 221.00 L 27.91 221.00 C 25.33 219.77 22.92 218.13 20.98 216.02 C 17.47 210.01 15.86 203.14 14.41 196.39 C 13.29 188.45 13.51 180.39 12.81 172.41 C 11.75 160.87 11.90 149.27 11.09 137.72 C 10.31 126.14 10.86 114.51 9.50 102.97 C 8.23 92.05 7.12 81.11 5.83 70.19 C 3.37 54.10 5.45 37.25 0.00 21.69 L 0.00 21.18 C 0.14 21.00 0.42 20.64 0.56 20.46 C 1.15 18.02 0.56 15.55 0.18 13.13 C 4.45 10.31 3.03 3.68 8.14 1.75 M 253.71 88.65 C 249.50 99.11 250.23 110.85 253.79 121.39 C 258.78 113.24 260.49 103.75 262.67 94.59 C 263.86 88.99 265.47 81.88 261.10 77.27 C 257.61 80.31 255.57 84.51 253.71 88.65 Z" />
<path fill="#000000" opacity="1.00" d=" M 591.28 17.24 C 592.44 15.97 595.33 14.78 595.84 17.25 C 598.04 20.45 596.60 25.11 599.76 27.71 C 598.75 42.01 594.63 55.87 592.56 70.03 C 591.51 77.01 589.59 83.91 589.81 91.03 C 590.13 95.78 588.08 100.26 588.16 105.00 C 588.25 112.67 588.24 120.36 589.23 127.98 C 589.64 130.46 588.85 132.85 587.70 135.01 C 587.14 134.73 586.04 134.16 585.48 133.88 C 584.50 135.63 583.57 137.43 583.40 139.46 C 581.33 140.21 579.35 141.27 580.08 143.90 C 575.94 144.22 572.86 141.29 569.37 139.64 C 567.70 138.87 565.93 137.50 564.04 138.56 C 558.70 131.88 555.08 124.03 551.74 116.22 C 547.26 106.38 545.20 95.54 545.05 84.76 C 541.83 91.33 540.55 98.57 538.55 105.54 C 537.31 110.58 537.52 115.82 536.81 120.92 C 534.59 121.35 534.02 118.56 532.62 117.38 C 531.96 119.39 531.58 121.48 531.38 123.58 C 530.08 123.93 528.79 124.30 527.52 124.66 C 527.78 125.37 528.30 126.80 528.56 127.51 C 527.80 128.00 527.03 128.49 526.28 128.98 C 523.91 126.61 520.73 125.63 517.43 125.77 C 512.82 115.26 508.39 104.49 506.73 93.06 C 505.79 86.42 505.01 79.76 504.55 73.07 C 498.00 85.91 491.95 99.37 481.80 109.85 C 478.56 113.05 475.90 117.39 471.17 118.46 C 469.03 119.21 465.64 120.50 466.77 123.39 C 462.90 123.11 459.01 123.19 455.17 122.69 C 450.19 121.63 447.13 117.32 444.17 113.59 C 440.03 115.87 436.74 119.46 432.37 121.36 C 426.47 124.07 421.64 129.08 415.08 130.26 C 413.62 130.68 412.37 130.33 411.34 129.23 C 410.60 129.63 409.86 130.03 409.13 130.43 C 407.85 129.64 406.58 128.85 405.32 128.04 C 405.55 124.52 404.39 120.96 405.33 117.50 C 407.17 110.28 407.55 102.66 410.78 95.84 C 413.00 91.22 413.25 86.00 415.23 81.32 C 417.83 75.28 418.69 68.63 421.71 62.77 C 423.27 59.79 424.44 56.64 425.54 53.47 C 426.12 51.63 427.81 49.60 429.91 49.86 C 432.46 49.91 433.61 52.74 433.99 54.88 C 434.11 60.85 431.02 66.10 428.69 71.38 C 424.72 84.47 420.10 97.35 416.45 110.53 C 423.92 107.29 430.34 102.22 437.29 98.07 C 434.54 91.39 433.39 84.22 432.94 77.05 C 435.48 74.00 436.44 70.04 438.74 66.84 C 441.01 62.59 442.02 57.73 444.69 53.67 C 447.15 50.43 450.63 48.04 454.35 46.44 C 458.29 45.19 462.50 46.54 466.51 45.57 C 465.95 44.61 465.40 43.65 464.85 42.69 C 469.51 45.01 474.27 47.14 478.76 49.79 C 479.73 52.73 480.29 56.09 482.77 58.22 C 484.90 60.07 486.86 62.92 485.72 65.86 C 483.75 71.16 481.67 76.54 478.14 81.03 C 473.40 88.13 467.86 94.71 461.14 100.02 C 462.42 102.61 463.98 105.05 465.92 107.21 C 467.48 106.77 469.45 107.06 470.66 105.77 C 480.81 95.29 487.81 82.33 494.39 69.45 C 498.98 61.61 502.73 53.30 507.47 45.55 C 509.20 44.67 510.90 43.70 512.55 42.65 C 513.74 43.20 514.93 43.74 516.14 44.27 C 516.41 45.10 516.70 45.93 517.00 46.76 C 518.41 47.14 519.81 47.58 521.25 47.92 C 521.81 50.92 522.27 53.93 522.96 56.91 C 523.06 54.33 523.05 51.76 523.16 49.18 C 526.32 51.74 525.90 56.18 527.19 59.69 C 527.98 60.52 529.06 61.28 529.18 62.54 C 529.88 66.81 529.96 71.15 530.38 75.46 C 533.69 68.19 537.91 61.30 543.29 55.38 C 546.04 53.00 549.63 51.81 552.31 49.29 C 553.75 47.80 555.94 47.43 557.93 47.84 C 559.92 50.24 562.04 52.53 564.38 54.60 C 566.10 59.33 565.22 64.63 566.82 69.44 C 567.32 68.81 568.33 67.54 568.84 66.91 C 569.53 68.18 570.24 69.45 570.98 70.70 C 573.18 56.76 573.65 41.76 581.45 29.49 C 584.02 24.89 587.56 20.94 591.28 17.24 M 453.34 69.94 C 453.21 74.74 453.89 79.53 455.15 84.16 C 460.56 78.76 465.43 72.56 468.25 65.40 C 469.68 62.57 467.57 59.80 466.57 57.23 C 464.36 57.04 462.14 56.86 459.94 56.65 C 456.49 60.22 453.01 64.68 453.34 69.94 Z" />
<path fill="#000000" opacity="1.00" d=" M 429.51 19.24 C 431.58 18.74 433.94 17.54 435.94 18.92 C 437.78 20.07 439.96 21.12 441.03 23.09 C 441.17 26.22 440.66 29.32 440.41 32.43 C 441.47 30.29 440.99 26.39 443.84 25.86 C 445.55 28.62 444.59 32.00 444.68 35.04 C 444.33 37.29 445.08 40.36 442.79 41.78 C 439.40 43.93 436.62 46.83 433.95 49.79 C 430.94 45.95 428.29 41.67 427.13 36.89 C 426.63 30.95 426.48 24.59 429.51 19.24 Z" />
<path fill="#000000" opacity="1.00" d=" M 313.85 46.12 C 315.06 40.88 319.48 36.00 325.01 35.47 C 329.81 36.03 335.39 36.32 338.91 40.09 C 341.72 43.73 344.95 47.28 346.17 51.83 C 347.47 56.57 350.18 60.77 351.36 65.55 C 348.76 67.62 349.97 70.77 350.70 73.42 C 353.47 81.46 354.32 90.06 358.09 97.76 C 360.50 102.19 361.41 107.40 364.94 111.19 C 368.64 105.55 372.77 100.23 376.70 94.76 C 379.24 89.01 383.15 84.04 387.60 79.65 C 392.69 75.34 394.93 68.14 401.37 65.33 C 404.76 64.10 409.40 62.08 412.40 65.09 C 411.60 67.75 409.03 69.27 407.38 71.36 C 404.86 74.51 402.29 77.62 399.43 80.46 C 396.52 83.34 397.60 87.99 395.57 91.32 C 393.38 93.88 390.86 96.33 389.79 99.63 C 388.56 103.22 386.88 106.63 384.91 109.87 C 382.69 113.50 381.42 117.60 379.30 121.28 C 377.41 124.82 375.83 129.49 378.59 133.03 C 375.94 137.29 371.29 139.51 367.44 142.48 C 364.26 143.63 360.45 143.87 357.20 142.91 C 353.25 139.82 349.70 135.95 347.76 131.26 C 343.45 120.32 336.20 110.78 332.51 99.57 C 331.18 95.29 329.66 91.08 327.96 86.95 C 325.43 80.92 326.16 74.14 323.82 68.06 C 322.48 64.66 321.26 61.06 318.68 58.37 C 315.59 55.11 314.07 50.51 313.85 46.12 Z" />
</g>
</svg>
